<svg width="41" height="41" viewBox="0 0 41 41" fill="none" xmlns="http://www.w3.org/2000/svg">
<rect x="0.5" y="0.5" width="40" height="40" rx="20" fill="white"/>
<rect x="0.5" y="0.5" width="40" height="40" rx="20" stroke="#22AE4B"/>
<path d="M27.625 20.5001C27.625 20.6576 27.5624 20.8086 27.4511 20.9199C27.3397 21.0313 27.1887 21.0938 27.0312 21.0938H15.4019L19.7326 25.4238C19.7877 25.4789 19.8315 25.5444 19.8613 25.6165C19.8912 25.6886 19.9066 25.7658 19.9066 25.8438C19.9066 25.9219 19.8912 25.9991 19.8613 26.0712C19.8315 26.1433 19.7877 26.2088 19.7326 26.2639C19.6774 26.3191 19.6119 26.3628 19.5398 26.3927C19.4677 26.4226 19.3905 26.4379 19.3125 26.4379C19.2345 26.4379 19.1572 26.4226 19.0851 26.3927C19.0131 26.3628 18.9476 26.3191 18.8924 26.2639L13.5487 20.9202C13.4934 20.865 13.4497 20.7995 13.4198 20.7275C13.3899 20.6554 13.3745 20.5781 13.3745 20.5001C13.3745 20.4221 13.3899 20.3448 13.4198 20.2727C13.4497 20.2006 13.4934 20.1352 13.5487 20.08L18.8924 14.7363C19.0038 14.6248 19.1549 14.5623 19.3125 14.5623C19.47 14.5623 19.6211 14.6248 19.7326 14.7363C19.844 14.8477 19.9066 14.9988 19.9066 15.1563C19.9066 15.3139 19.844 15.465 19.7326 15.5764L15.4019 19.9063H27.0312C27.1887 19.9063 27.3397 19.9689 27.4511 20.0802C27.5624 20.1916 27.625 20.3426 27.625 20.5001Z" fill="#22AE4B"/>
</svg>
