<svg width="41" height="41" viewBox="0 0 41 41" fill="none" xmlns="http://www.w3.org/2000/svg">
<rect x="0.5" y="0.5" width="40" height="40" rx="20" fill="white"/>
<rect x="0.5" y="0.5" width="40" height="40" rx="20" stroke="#22AE4B"/>
<path d="M13.375 20.4999C13.375 20.3424 13.4376 20.1914 13.5489 20.0801C13.6603 19.9687 13.8113 19.9062 13.9688 19.9062H25.5981L21.2674 15.5762C21.2123 15.5211 21.1685 15.4556 21.1387 15.3835C21.1088 15.3114 21.0934 15.2342 21.0934 15.1562C21.0934 15.0781 21.1088 15.0009 21.1387 14.9288C21.1685 14.8567 21.2123 14.7912 21.2674 14.7361C21.3226 14.6809 21.3881 14.6372 21.4602 14.6073C21.5323 14.5774 21.6095 14.5621 21.6875 14.5621C21.7655 14.5621 21.8428 14.5774 21.9149 14.6073C21.9869 14.6372 22.0524 14.6809 22.1076 14.7361L27.4513 20.0798C27.5066 20.135 27.5503 20.2005 27.5802 20.2725C27.6101 20.3446 27.6255 20.4219 27.6255 20.4999C27.6255 20.5779 27.6101 20.6552 27.5802 20.7273C27.5503 20.7994 27.5066 20.8648 27.4513 20.92L22.1076 26.2637C21.9962 26.3752 21.8451 26.4377 21.6875 26.4377C21.53 26.4377 21.3789 26.3752 21.2674 26.2637C21.156 26.1523 21.0934 26.0012 21.0934 25.8437C21.0934 25.6861 21.156 25.535 21.2674 25.4236L25.5981 21.0937H13.9688C13.8113 21.0937 13.6603 21.0311 13.5489 20.9198C13.4376 20.8084 13.375 20.6574 13.375 20.4999Z" fill="#22AE4B"/>
</svg>
