<svg width="14" height="14" viewBox="0 0 14 14" fill="none" xmlns="http://www.w3.org/2000/svg">
<path d="M12.7148 11.7852L10.1172 9.1875C10.4453 8.76823 10.7005 8.29655 10.8828 7.77246C11.0651 7.24837 11.1562 6.69922 11.1562 6.125C11.1562 5.42318 11.0241 4.76693 10.7598 4.15625C10.4954 3.54557 10.1354 3.01237 9.67969 2.55664C9.22396 2.10091 8.69076 1.74089 8.08008 1.47656C7.4694 1.21224 6.81771 1.08008 6.125 1.08008C5.42318 1.08008 4.76693 1.21224 4.15625 1.47656C3.54557 1.74089 3.01237 2.10091 2.55664 2.55664C2.10091 3.01237 1.74089 3.54557 1.47656 4.15625C1.21224 4.76693 1.08008 5.42318 1.08008 6.125C1.08008 6.81771 1.21224 7.4694 1.47656 8.08008C1.74089 8.69076 2.10091 9.22396 2.55664 9.67969C3.01237 10.1354 3.54557 10.4954 4.15625 10.7598C4.76693 11.0241 5.42318 11.1562 6.125 11.1562C6.69922 11.1562 7.24837 11.0628 7.77246 10.876C8.29655 10.6891 8.77279 10.4316 9.20117 10.1035L9.1875 10.1172L11.7852 12.7148C11.849 12.7786 11.9196 12.8265 11.9971 12.8584C12.0745 12.8903 12.1589 12.9062 12.25 12.9062C12.4323 12.9062 12.5872 12.8424 12.7148 12.7148C12.8424 12.5872 12.9062 12.4323 12.9062 12.25C12.9062 12.1589 12.8903 12.0745 12.8584 11.9971C12.8265 11.9196 12.7786 11.849 12.7148 11.7852ZM2.40625 6.125C2.40625 5.61458 2.50195 5.13151 2.69336 4.67578C2.89388 4.22917 3.16276 3.83724 3.5 3.5C3.83724 3.16276 4.22917 2.89388 4.67578 2.69336C5.13151 2.50195 5.61458 2.40625 6.125 2.40625C6.63542 2.40625 7.11849 2.50195 7.57422 2.69336C8.02083 2.89388 8.41276 3.16276 8.75 3.5C9.08724 3.83724 9.35612 4.22917 9.55664 4.67578C9.74805 5.13151 9.84375 5.61458 9.84375 6.125C9.84375 6.63542 9.74805 7.11849 9.55664 7.57422C9.35612 8.02083 9.08724 8.41276 8.75 8.75C8.41276 9.08724 8.02083 9.35612 7.57422 9.55664C7.11849 9.74805 6.63542 9.84375 6.125 9.84375C5.61458 9.84375 5.13151 9.74805 4.67578 9.55664C4.22917 9.35612 3.83724 9.08724 3.5 8.75C3.16276 8.41276 2.89388 8.02083 2.69336 7.57422C2.50195 7.11849 2.40625 6.63542 2.40625 6.125Z" fill="#757575"/>
</svg>
