<svg width="21" height="21" viewBox="0 0 21 21" fill="none" xmlns="http://www.w3.org/2000/svg">
<g clip-path="url(#clip0_2101_380)">
<path d="M10.5 19.25C15.3325 19.25 19.25 15.3325 19.25 10.5C19.25 5.66751 15.3325 1.75 10.5 1.75C5.66751 1.75 1.75 5.66751 1.75 10.5C1.75 15.3325 5.66751 19.25 10.5 19.25Z" stroke="#22AE4B" stroke-width="2" stroke-linecap="round" stroke-linejoin="round"/>
<path d="M1.75 10.5H19.25" stroke="#22AE4B" stroke-width="2" stroke-linecap="round" stroke-linejoin="round"/>
<path d="M10.5 1.75C12.6886 4.14606 13.9324 7.25553 14 10.5C13.9324 13.7445 12.6886 16.8539 10.5 19.25C8.31138 16.8539 7.06759 13.7445 7 10.5C7.06759 7.25553 8.31138 4.14606 10.5 1.75V1.75Z" stroke="#22AE4B" stroke-width="2" stroke-linecap="round" stroke-linejoin="round"/>
</g>
<defs>
<clipPath id="clip0_2101_380">
<rect width="21" height="21" fill="white"/>
</clipPath>
</defs>
</svg>
